<?xml version="1.0" ?><!DOCTYPE svg  PUBLIC '-//W3C//DTD SVG 1.1//EN'  'http://www.w3.org/Graphics/SVG/1.1/DTD/svg11.dtd'><svg enable-background="new 0 0 200 200" height="200px" id="Слой_1" version="1.1" viewBox="0 0 200 200" width="200px" xml:space="preserve" xmlns="http://www.w3.org/2000/svg" xmlns:xlink="http://www.w3.org/1999/xlink"><g><path d="M179.477,103.996c10.021-5.822,15.014-18.021,11.291-29.488c-3.729-11.486-14.936-18.407-26.479-17.221   c4.693-10.604,1.568-23.407-8.195-30.502c-9.767-7.097-22.898-6.106-31.533,1.639c-2.432-11.341-12.492-19.855-24.56-19.855   s-22.129,8.516-24.56,19.854c-8.633-7.745-21.772-8.724-31.534-1.629c-9.765,7.094-12.902,19.896-8.195,30.501   C24.18,56.101,12.968,63.028,9.238,74.508c-3.73,11.486,1.258,23.684,11.301,29.496c-10.039,5.814-15.031,18.01-11.305,29.488   c3.732,11.484,14.938,18.414,26.479,17.219c-4.697,10.604-1.566,23.406,8.188,30.5c9.773,7.096,22.908,6.117,31.545-1.629   c2.432,11.34,12.486,19.855,24.557,19.855c12.075,0,22.127-8.518,24.559-19.855c8.631,7.736,21.775,8.725,31.539,1.629   c9.768-7.102,12.896-19.896,8.193-30.5c11.535,1.188,22.743-5.742,26.475-17.219C194.494,122.004,189.51,109.818,179.477,103.996z" fill="#163861"/><path d="M179.578,96.111c10.033-5.828,15.033-18.042,11.306-29.524c-3.733-11.501-14.952-18.434-26.511-17.243   c4.699-10.616,1.568-23.438-8.206-30.54c-9.778-7.104-22.931-6.115-31.576,1.639c-2.434-11.354-12.508-19.88-24.59-19.88   c-12.084,0-22.158,8.526-24.59,19.88c-8.646-7.754-21.804-8.731-31.578-1.63c-9.774,7.104-12.92,19.924-8.205,30.54   c-11.549-1.197-22.772,5.742-26.506,17.234c-3.74,11.501,1.256,23.714,11.313,29.534c-10.054,5.82-15.056,18.033-11.319,29.527   c3.737,11.5,14.959,18.438,26.512,17.242c-4.705,10.615-1.569,23.438,8.201,30.541c9.784,7.104,22.938,6.123,31.586-1.633   c2.435,11.354,12.503,19.881,24.586,19.881c12.09,0,22.156-8.525,24.589-19.88c8.645,7.746,21.807,8.734,31.581,1.632   c9.779-7.113,12.911-19.925,8.205-30.541c11.55,1.188,22.771-5.75,26.507-17.242C194.618,114.146,189.627,101.941,179.578,96.111z" fill="#1C477B"/></g><g><path d="M149.466,62.225c4.708,8.65,3.154,18.834,1.296,24.854c-10.042,32.8-55.346,31.015-61.897,31.015   c-6.543,0-8.066,6.103-8.066,6.103l-4.901,21.358c-1.337,7.492-8.126,7.129-8.126,7.129s-8.838,0-14.747,0   c-0.373,0-0.72-0.034-1.033-0.075c-0.076,1.368,0.119,5.39,5.028,5.39c5.909,0,14.738,0,14.738,0s6.798,0.373,8.134-7.127   l4.894-21.35c0,0,1.533-6.104,8.075-6.104c6.543,0,51.859,1.786,61.905-31.015C157.008,85.079,158.829,71.603,149.466,62.225z" fill="#FFFFFF"/><path d="M71.341,140.898l4.902-21.359c0,0,1.514-6.092,8.066-6.092c6.551,0,51.856,1.77,61.896-31.008   c3.675-11.995,6.229-40.437-39.521-40.437H73.644c0,0-6.874-0.311-8.565,6.985l-21.596,93.19c0,0-0.932,5.84,4.977,5.84   c5.919,0,14.756,0,14.756,0S70.004,148.398,71.341,140.898z M83.803,86.688l4.385-18.928c0,0,1.405-5.155,5.916-5.915   c4.513-0.771,12.199,0.125,14.172,0.507c12.834,2.411,10.1,14.55,10.1,14.55c-2.541,18.743-31.711,16.143-31.711,16.143   C82.092,91.395,83.803,86.688,83.803,86.688z" fill="#FFFFFF"/></g></svg>